<?xml version="1.0" standalone="no"?>
<!DOCTYPE svg PUBLIC "-//W3C//DTD SVG 1.1//EN" "http://www.w3.org/Graphics/SVG/1.1/DTD/svg11.dtd" >
<svg xmlns="http://www.w3.org/2000/svg">
<metadata>
This is a custom SVG webfont generated by Font Squirrel.
Copyright   : c 2001 Levi
</metadata>
<defs>
<font id="webfontF3uTRhbB" horiz-adv-x="624" >
<font-face units-per-em="2048" ascent="1638" descent="-410" />
<missing-glyph horiz-adv-x="964" />
<glyph unicode=" "  horiz-adv-x="964" />
<glyph unicode="&#x09;" horiz-adv-x="964" />
<glyph unicode="&#xa0;" horiz-adv-x="964" />
<glyph unicode="!" horiz-adv-x="622" d="M-51 842v848q213 0 329.5 -117t116.5 -279v-848q-213 0 -329.5 117t-116.5 279zM-51 344v170q213 0 329.5 -116.5t116.5 -278.5v-170q-213 0 -329.5 116.5t-116.5 278.5z" />
<glyph unicode="&#x22;" horiz-adv-x="1058" d="M395 1239v451q213 0 330 -117t117 -279v-450q-213 0 -330 115.5t-117 279.5zM-51 1239v451q213 0 329.5 -117t116.5 -279v-450q-213 0 -329.5 115.5t-116.5 279.5z" />
<glyph unicode="'" horiz-adv-x="612" d="M-51 1239v451q213 0 329.5 -117t116.5 -279v-450q-213 0 -329.5 115.5t-116.5 279.5z" />
<glyph unicode="+" horiz-adv-x="1523" d="M870 606v-114q0 -156 -109.5 -268.5t-318.5 -112.5v495h-114q-156 0 -267.5 110.5t-111.5 315.5h493v115q0 156 110 268.5t318 112.5v-496h115q156 0 267.5 -110.5t111.5 -315.5h-494z" />
<glyph unicode="," horiz-adv-x="614" d="M-51 61v453q213 0 329.5 -116.5t116.5 -278.5v-453q-213 0 -329.5 116.5t-116.5 278.5z" />
<glyph unicode="-" horiz-adv-x="1570" d="M328 606q-156 0 -267.5 110.5t-111.5 315.5h1036q156 0 267.5 -110.5t111.5 -315.5h-1036z" />
<glyph unicode="." horiz-adv-x="614" d="M-51 344v170q213 0 329.5 -116.5t116.5 -278.5v-170q-213 0 -329.5 116.5t-116.5 278.5z" />
<glyph unicode="/" horiz-adv-x="919" d="M311 -51h-385l643 1741h385z" />
<glyph unicode="0" horiz-adv-x="1914" d="M827 -51q-362 0 -620 256t-258 616v869h1757v-869q0 -360 -258.5 -616t-620.5 -256zM1262 1262h-867v-441q0 -182 125 -313t307 -131q180 0 307.5 137t127.5 320v428z" />
<glyph unicode="1" d="M-51 -51v1741q213 0 329.5 -117t116.5 -279v-1345h-446z" />
<glyph unicode="2" horiz-adv-x="2058" d="M729 -51v977q0 139 -95 237.5t-235 98.5h-71q-158 0 -268.5 110.5t-110.5 317.5h522q289 0 494.5 -203t205.5 -490l3 -620h403q156 0 266.5 -110.5t110.5 -317.5h-1225z" />
<glyph unicode="3" horiz-adv-x="1558" d="M485 -51h-536q0 207 111.5 317.5t267.5 110.5h157q119 0 220.5 62.5t158.5 166.5h-536q-156 0 -267.5 110.5t-111.5 315.5h915q-57 104 -158.5 167t-220.5 63h-157q-156 0 -267.5 110.5t-111.5 317.5h536q362 0 620.5 -256t258.5 -617q0 -362 -258.5 -615t-620.5 -253z " />
<glyph unicode="4" horiz-adv-x="1732" d="M1057 344v262h-713q-164 0 -279.5 115t-115.5 278v691q213 0 329.5 -117t116.5 -279v-262h662v658q215 0 330.5 -116t115.5 -280v-1345q-213 0 -329.5 116.5t-116.5 278.5z" />
<glyph unicode="5" horiz-adv-x="2086" d="M1573 1262h-72q-137 0 -233.5 -99.5t-96.5 -236.5v-977h-1222q0 207 110.5 317.5t266.5 110.5h401l2 620q0 287 207 490t496 203h522q0 -207 -111.5 -317.5t-269.5 -110.5z" />
<glyph unicode="6" horiz-adv-x="1904" d="M395 1690h436q362 0 622.5 -253t260.5 -616q0 -360 -260 -616t-623 -256q-362 0 -621 256t-259 616l-2 852q0 360 260 614.5t620 254.5h535q0 -207 -110.5 -317.5t-266.5 -110.5h-158q-176 0 -302 -124t-132 -300zM831 1262h-432v-441q0 -182 125 -313t307 -131 t307.5 131t125.5 313q0 180 -126.5 310.5t-306.5 130.5z" />
<glyph unicode="7" horiz-adv-x="1585" d="M918 -51v872q0 180 -127 310.5t-308 130.5h-157q-156 0 -266.5 110.5t-110.5 317.5h534q362 0 621.5 -254t259.5 -615v-872h-446z" />
<glyph unicode="8" horiz-adv-x="1902" d="M827 -51q-362 0 -620 254t-258 614t258 616.5t620 256.5t621.5 -256t259.5 -617q0 -360 -259.5 -614t-621.5 -254zM827 1262q-119 0 -220 -62.5t-158 -167.5h757q-57 104 -158.5 167t-220.5 63zM449 606q55 -104 157.5 -166.5t220.5 -62.5q119 0 221.5 62.5t159.5 166.5 h-759z" />
<glyph unicode="9" horiz-adv-x="1923" d="M1268 -51h-439q-362 0 -621 254t-259 614t259 616.5t621 256.5t622.5 -256t260.5 -617l2 -852q0 -362 -260 -615t-623 -253h-534q0 207 110.5 317.5t266.5 110.5h157q176 0 303.5 124t133.5 300zM1262 817q0 182 -125 313.5t-308 131.5q-182 0 -307 -131.5t-125 -313.5 q0 -180 126 -310t306 -130h433v440z" />
<glyph unicode=":" d="M-51 842v168q213 0 329.5 -116t116.5 -278v-170q-213 0 -329.5 117t-116.5 279zM-51 344v170q213 0 329.5 -116.5t116.5 -278.5v-170q-213 0 -329.5 116.5t-116.5 278.5z" />
<glyph unicode=";" horiz-adv-x="622" d="M-51 842v168q213 0 329.5 -116t116.5 -278v-170q-213 0 -329.5 117t-116.5 279zM-51 61v453q213 0 329.5 -116.5t116.5 -278.5v-453q-213 0 -329.5 116.5t-116.5 278.5z" />
<glyph unicode="=" horiz-adv-x="1544" d="M328 895q-156 0 -267.5 110.5t-111.5 317.5h1036q156 0 267.5 -110.5t111.5 -317.5h-1036zM328 322q-156 0 -267.5 110.5t-111.5 317.5h1036q156 0 267.5 -111t111.5 -317h-1036z" />
<glyph unicode="?" horiz-adv-x="1388" d="M737 915l-8 -18v29q0 139 -95 237.5t-235 98.5h-71q-158 0 -268.5 110.5t-110.5 317.5h522q289 0 494.5 -202t205.5 -491v-551q-213 0 -329.5 117t-116.5 271q0 42 12 81zM727 344v170q213 0 328.5 -116.5t115.5 -278.5v-170q-213 0 -328.5 116.5t-115.5 278.5z" />
<glyph unicode="A" horiz-adv-x="1933" d="M829 -51q-362 0 -621 254t-259 614t259 616.5t621 256.5t622.5 -256t260.5 -617v-868h-883zM1262 817q0 182 -125 313.5t-308 131.5q-182 0 -307 -131.5t-125 -313.5q0 -180 126 -310t306 -130h433v440z" />
<glyph unicode="B" horiz-adv-x="1904" d="M829 -51q-362 0 -621 256t-259 616v1276q213 0 329.5 -116.5t116.5 -278.5v-12h434q362 0 622.5 -253t260.5 -616q0 -360 -260.5 -616t-622.5 -256zM829 1262h-432v-441q0 -182 125 -313t307 -131t307.5 131t125.5 313q0 180 -126.5 310.5t-306.5 130.5z" />
<glyph unicode="C" horiz-adv-x="1486" d="M827 -51q-362 0 -620 254t-258 614t258 616.5t620 256.5h535q0 -207 -110.5 -317.5t-266.5 -110.5h-158q-180 0 -308 -132.5t-128 -312.5t128 -310t308 -130h158q156 0 266.5 -110.5t110.5 -317.5h-535z" />
<glyph unicode="D" horiz-adv-x="1906" d="M829 -51h-880v868q0 360 259 616.5t621 256.5t622.5 -256t260.5 -617q0 -362 -260.5 -615t-622.5 -253zM829 1262q-182 0 -307 -131.5t-125 -313.5v-440h432q180 0 306.5 130t126.5 310q0 182 -125.5 313.5t-307.5 131.5z" />
<glyph unicode="E" horiz-adv-x="1556" d="M985 606h-272q-90 0 -151.5 60.5t-61.5 150.5t61.5 152.5t151.5 62.5h651q0 -205 -111.5 -315.5t-267.5 -110.5zM827 -51q-362 0 -620 254t-258 614t258 616.5t620 256.5h537q0 -207 -111.5 -317.5t-267.5 -110.5h-158q-180 0 -306 -132.5t-126 -312.5t126 -310t306 -130 h158q156 0 267.5 -110.5t111.5 -317.5h-537z" />
<glyph unicode="F" horiz-adv-x="1490" d="M985 606h-272q-90 0 -151.5 60.5t-61.5 150.5t61.5 152.5t151.5 62.5h651q0 -205 -111.5 -315.5t-267.5 -110.5zM987 1262h-158q-180 0 -307 -130.5t-127 -310.5v-477q0 -162 -116.5 -278.5t-329.5 -116.5v872q0 360 259 614.5t621 254.5h535q0 -207 -110.5 -317.5 t-266.5 -110.5z" />
<glyph unicode="G" horiz-adv-x="1927" d="M1335 111q-221 -162 -506 -162q-362 0 -621 254t-259 614t259 616.5t621 256.5h535q0 -207 -110.5 -317.5t-266.5 -110.5h-158q-180 0 -307 -132.5t-127 -312.5t127 -310t307 -130q182 0 307.5 131t125.5 313q0 162 116.5 279t329.5 117v-1268q-258 0 -373 162z" />
<glyph unicode="H" horiz-adv-x="1732" d="M1057 344v262h-662v-657q-213 0 -329.5 116.5t-116.5 278.5v1346q213 0 329.5 -117t116.5 -279v-262h662v658q215 0 330.5 -116t115.5 -280v-1345q-213 0 -329.5 116.5t-116.5 278.5z" />
<glyph unicode="I" d="M-51 344v1346q213 0 329.5 -117t116.5 -279v-1345q-213 0 -329.5 116.5t-116.5 278.5z" />
<glyph unicode="J" horiz-adv-x="1572" d="M483 -51h-534q0 207 110.5 317.5t266.5 110.5h157q180 0 307.5 130t127.5 310v477q0 162 116.5 279t329.5 117v-873q0 -360 -259.5 -614t-621.5 -254z" />
<glyph unicode="K" horiz-adv-x="1898" d="M1231 -51v194q0 180 -126 312.5t-306 132.5h-404v-639h-446v1741q213 0 329.5 -117t116.5 -279v-278h404q180 0 306 132t126 312v205h446v-205q0 -397 -305 -659q143 -123 224 -296t81 -362v-194h-446z" />
<glyph unicode="L" horiz-adv-x="1443" d="M829 -51q-362 0 -621 254t-259 614v873q213 0 329.5 -117t116.5 -279v-477q0 -180 127 -310t307 -130h158q156 0 266.5 -110.5t110.5 -317.5h-535z" />
<glyph unicode="M" horiz-adv-x="3241" d="M2574 344v473q0 182 -125 313.5t-307 131.5q-180 0 -307 -132.5t-127 -312.5v-868q-213 0 -329.5 116.5t-116.5 278.5v473q0 182 -125 313.5t-308 131.5q-180 0 -307 -132.5t-127 -312.5v-473q0 -164 -115.5 -279.5t-330.5 -115.5v868q0 360 259 616.5t621 256.5 q391 0 658 -293q125 137 297 215t358 78q362 0 620.5 -255t258.5 -618v-868q-213 0 -330 116.5t-117 278.5z" />
<glyph unicode="N" horiz-adv-x="1929" d="M1262 344v473q0 180 -126 312.5t-307 132.5q-180 0 -307 -132.5t-127 -312.5v-473q0 -162 -116.5 -278.5t-329.5 -116.5v868q0 362 259 617.5t621 255.5t620.5 -256t258.5 -617v-868q-213 0 -329.5 116.5t-116.5 278.5z" />
<glyph unicode="O" horiz-adv-x="1902" d="M827 -51q-362 0 -620 254t-258 614t258 616.5t620 256.5t621.5 -256t259.5 -617q0 -360 -259.5 -614t-621.5 -254zM827 1262q-182 0 -307 -131.5t-125 -313.5q0 -180 126 -310t306 -130t307.5 130t127.5 310q0 182 -127.5 313.5t-307.5 131.5z" />
<glyph unicode="P" horiz-adv-x="1906" d="M829 -51h-434v-15q0 -162 -116.5 -278.5t-329.5 -116.5v1278q0 360 259 616.5t621 256.5t622.5 -256t260.5 -617q0 -362 -260.5 -615t-622.5 -253zM829 1262q-182 0 -307 -131.5t-125 -313.5v-440h432q180 0 306.5 130t126.5 310q0 182 -125.5 313.5t-307.5 131.5z" />
<glyph unicode="Q" horiz-adv-x="1908" d="M1262 -66v15h-433q-362 0 -621 254t-259 614t259 616.5t621 256.5t621.5 -256t259.5 -617v-1278q-213 0 -330.5 116.5t-117.5 278.5zM1262 817q0 182 -125 313.5t-308 131.5q-182 0 -307 -131.5t-125 -313.5q0 -180 126 -310t306 -130h433v440z" />
<glyph unicode="R" horiz-adv-x="1447" d="M987 1262h-158q-180 0 -307 -130.5t-127 -310.5v-477q0 -162 -116.5 -278.5t-329.5 -116.5v872q0 360 259 614.5t621 254.5h535q0 -207 -110.5 -317.5t-266.5 -110.5z" />
<glyph unicode="S" horiz-adv-x="2056" d="M1573 1262h-72q-137 0 -233.5 -99.5t-96.5 -236.5v-285q0 -289 -205.5 -490.5t-494.5 -201.5h-522q0 207 110.5 317.5t266.5 110.5h73q139 0 234.5 98t95.5 238v284q0 289 207 491t496 202h522q0 -207 -111.5 -317.5t-269.5 -110.5z" />
<glyph unicode="T" horiz-adv-x="1847" d="M1325 1237h-276v-1288q-213 0 -330 116.5t-117 278.5v893h-276q-156 0 -266.5 110.5t-110.5 317.5h1753q0 -207 -110.5 -317.5t-266.5 -110.5z" />
<glyph unicode="U" horiz-adv-x="1916" d="M829 -51q-362 0 -621 255t-259 617v869q213 0 329.5 -117t116.5 -279v-473q0 -180 127 -312t307 -132t306.5 132t126.5 312v473q0 162 116.5 279t329.5 117v-869q0 -360 -258.5 -616t-620.5 -256z" />
<glyph unicode="V" horiz-adv-x="1916" d="M827 -51h-878v1741q213 0 329.5 -117t116.5 -279v-917h432q180 0 307.5 130t127.5 310v477q0 162 116.5 279t329.5 117v-873q0 -362 -259.5 -615t-621.5 -253z" />
<glyph unicode="W" horiz-adv-x="3229" d="M2142 -51q-393 0 -655 293q-268 -293 -660 -293q-362 0 -620 254t-258 614v873q213 0 329.5 -117t116.5 -279v-477q0 -180 126 -310t306 -130t307.5 130t127.5 310v873q213 0 329.5 -117t116.5 -279v-477q0 -180 127 -310t307 -130t306 130t126 310v477q0 162 117 279 t330 117v-873q0 -362 -258.5 -615t-620.5 -253z" />
<glyph unicode="X" horiz-adv-x="1931" d="M1262 -51v235q0 180 -126 312.5t-307 132.5q-182 0 -308 -131t-126 -314v-235h-446v235q0 397 307 660q-307 258 -307 657v164h446v-164q0 -180 127 -312t307 -132t306.5 132t126.5 312v164h446v-164q0 -397 -305 -657q145 -123 225 -296t80 -364v-235h-446z" />
<glyph unicode="Y" horiz-adv-x="1880" d="M1053 387v-438h-449v440q-287 76 -471 310.5t-184 531.5v459q213 0 329.5 -117t116.5 -279v-63q0 -180 127 -312.5t307 -132.5t306.5 132.5t126.5 312.5v63q0 162 116.5 279t329.5 117v-459q0 -295 -184 -531.5t-471 -312.5z" />
<glyph unicode="Z" horiz-adv-x="2062" d="M1432 -51q-289 0 -496 201.5t-207 490.5v285q0 139 -95 237.5t-235 98.5h-71q-158 0 -268.5 110.5t-110.5 317.5h522q289 0 494.5 -202t205.5 -491v-284q0 -137 96.5 -236.5t233.5 -99.5h76q156 0 266.5 -110.5t110.5 -317.5h-522z" />
<glyph unicode="\" horiz-adv-x="890" d="M569 -51l-643 1741h385l643 -1741h-385z" />
<glyph unicode="_" horiz-adv-x="1576" d="M328 -51q-156 0 -267.5 110.5t-111.5 317.5h1036q156 0 267.5 -110.5t111.5 -317.5h-1036z" />
<glyph unicode="a" horiz-adv-x="1933" d="M829 -51q-362 0 -621 254t-259 614t259 616.5t621 256.5t622.5 -256t260.5 -617v-868h-883zM1262 817q0 182 -125 313.5t-308 131.5q-182 0 -307 -131.5t-125 -313.5q0 -180 126 -310t306 -130h433v440z" />
<glyph unicode="b" horiz-adv-x="1904" d="M829 -51q-362 0 -621 256t-259 616v1276q213 0 329.5 -116.5t116.5 -278.5v-12h434q362 0 622.5 -253t260.5 -616q0 -360 -260.5 -616t-622.5 -256zM829 1262h-432v-441q0 -182 125 -313t307 -131t307.5 131t125.5 313q0 180 -126.5 310.5t-306.5 130.5z" />
<glyph unicode="c" horiz-adv-x="1486" d="M827 -51q-362 0 -620 254t-258 614t258 616.5t620 256.5h535q0 -207 -110.5 -317.5t-266.5 -110.5h-158q-180 0 -308 -132.5t-128 -312.5t128 -310t308 -130h158q156 0 266.5 -110.5t110.5 -317.5h-535z" />
<glyph unicode="d" horiz-adv-x="1906" d="M829 -51h-880v868q0 360 259 616.5t621 256.5t622.5 -256t260.5 -617q0 -362 -260.5 -615t-622.5 -253zM829 1262q-182 0 -307 -131.5t-125 -313.5v-440h432q180 0 306.5 130t126.5 310q0 182 -125.5 313.5t-307.5 131.5z" />
<glyph unicode="e" horiz-adv-x="1556" d="M985 606h-272q-90 0 -151.5 60.5t-61.5 150.5t61.5 152.5t151.5 62.5h651q0 -205 -111.5 -315.5t-267.5 -110.5zM827 -51q-362 0 -620 254t-258 614t258 616.5t620 256.5h537q0 -207 -111.5 -317.5t-267.5 -110.5h-158q-180 0 -306 -132.5t-126 -312.5t126 -310t306 -130 h158q156 0 267.5 -110.5t111.5 -317.5h-537z" />
<glyph unicode="f" horiz-adv-x="1490" d="M985 606h-272q-90 0 -151.5 60.5t-61.5 150.5t61.5 152.5t151.5 62.5h651q0 -205 -111.5 -315.5t-267.5 -110.5zM987 1262h-158q-180 0 -307 -130.5t-127 -310.5v-477q0 -162 -116.5 -278.5t-329.5 -116.5v872q0 360 259 614.5t621 254.5h535q0 -207 -110.5 -317.5 t-266.5 -110.5z" />
<glyph unicode="g" horiz-adv-x="1923" d="M1268 -51h-439q-362 0 -621 254t-259 614t259 616.5t621 256.5t622.5 -256t260.5 -617l2 -852q0 -362 -260 -615t-623 -253h-534q0 207 110.5 317.5t266.5 110.5h157q176 0 303.5 124t133.5 300zM1262 817q0 182 -125 313.5t-308 131.5q-182 0 -307 -131.5t-125 -313.5 q0 -180 126 -310t306 -130h433v440z" />
<glyph unicode="h" horiz-adv-x="1908" d="M1262 344v473q0 180 -126 312.5t-307 132.5q-180 0 -307 -132.5t-127 -312.5v-473q0 -162 -116.5 -278.5t-329.5 -116.5v2148q213 0 329.5 -116.5t116.5 -278.5v-111q166 98 434 99q362 0 620.5 -256t258.5 -617v-868q-213 0 -329.5 116.5t-116.5 278.5z" />
<glyph unicode="i" d="M-51 344v1346q213 0 329.5 -117t116.5 -279v-1345q-213 0 -329.5 116.5t-116.5 278.5z" />
<glyph unicode="j" horiz-adv-x="1572" d="M483 -51h-534q0 207 110.5 317.5t266.5 110.5h157q180 0 307.5 130t127.5 310v477q0 162 116.5 279t329.5 117v-873q0 -360 -259.5 -614t-621.5 -254z" />
<glyph unicode="k" horiz-adv-x="1892" d="M1231 -51v194q0 180 -126 312.5t-306 132.5h-404v-639h-446v2148q213 0 329.5 -116.5t116.5 -278.5v-686h404q180 0 306 132t126 312v205h446v-205q0 -397 -305 -659q143 -123 224 -296t81 -362v-194h-446z" />
<glyph unicode="l" horiz-adv-x="1273" d="M829 -51q-362 0 -621 254t-259 614v1280q213 0 329.5 -116.5t116.5 -278.5v-885q0 -180 127 -310t307 -130h158q156 0 266.5 -110.5t110.5 -317.5h-535z" />
<glyph unicode="m" horiz-adv-x="3241" d="M2574 344v473q0 182 -125 313.5t-307 131.5q-180 0 -307 -132.5t-127 -312.5v-868q-213 0 -329.5 116.5t-116.5 278.5v473q0 182 -125 313.5t-308 131.5q-180 0 -307 -132.5t-127 -312.5v-473q0 -164 -115.5 -279.5t-330.5 -115.5v868q0 360 259 616.5t621 256.5 q391 0 658 -293q125 137 297 215t358 78q362 0 620.5 -256t258.5 -617v-868q-213 0 -330 116.5t-117 278.5z" />
<glyph unicode="n" horiz-adv-x="1929" d="M1262 344v473q0 180 -126 312.5t-307 132.5q-180 0 -307 -132.5t-127 -312.5v-473q0 -162 -116.5 -278.5t-329.5 -116.5v868q0 362 259 617.5t621 255.5t620.5 -256t258.5 -617v-868q-213 0 -329.5 116.5t-116.5 278.5z" />
<glyph unicode="o" horiz-adv-x="1902" d="M827 -51q-362 0 -620 254t-258 614t258 616.5t620 256.5t621.5 -256t259.5 -617q0 -360 -259.5 -614t-621.5 -254zM827 1262q-182 0 -307 -131.5t-125 -313.5q0 -180 126 -310t306 -130t307.5 130t127.5 310q0 182 -127.5 313.5t-307.5 131.5z" />
<glyph unicode="p" horiz-adv-x="1906" d="M829 -51h-434v-15q0 -162 -116.5 -278.5t-329.5 -116.5v1278q0 360 259 616.5t621 256.5t622.5 -256t260.5 -617q0 -362 -260.5 -615t-622.5 -253zM829 1262q-182 0 -307 -131.5t-125 -313.5v-440h432q180 0 306.5 130t126.5 310q0 182 -125.5 313.5t-307.5 131.5z" />
<glyph unicode="q" horiz-adv-x="1908" d="M1262 -66v15h-433q-362 0 -621 254t-259 614t259 616.5t621 256.5t621.5 -256t259.5 -617v-1278q-213 0 -330.5 116.5t-117.5 278.5zM1262 817q0 182 -125 313.5t-308 131.5q-182 0 -307 -131.5t-125 -313.5q0 -180 126 -310t306 -130h433v440z" />
<glyph unicode="r" horiz-adv-x="1482" d="M1020 1262h-158q-180 0 -307 -130.5t-127 -310.5v-477q0 -162 -116.5 -278.5t-329.5 -116.5v872q0 360 259 614.5t621 254.5h535q0 -207 -110.5 -317.5t-266.5 -110.5z" />
<glyph unicode="s" horiz-adv-x="2058" d="M1573 1262h-72q-137 0 -233.5 -99.5t-96.5 -236.5v-285q0 -289 -205.5 -490.5t-494.5 -201.5h-522q0 207 110.5 317.5t266.5 110.5h73q139 0 234.5 98t95.5 238v284q0 289 207 491t496 202h522q0 -207 -111.5 -317.5t-269.5 -110.5z" />
<glyph unicode="t" horiz-adv-x="1486" d="M786 954h-73q-90 0 -152.5 61.5t-62.5 151.5t62.5 152.5t152.5 62.5h452q0 -205 -111.5 -316.5t-267.5 -111.5zM827 -51q-362 0 -620 254t-258 614v1280q213 0 329.5 -116.5t116.5 -278.5v-885q0 -180 126 -310t306 -130h158q156 0 267.5 -110.5t111.5 -317.5h-537z" />
<glyph unicode="u" horiz-adv-x="1916" d="M829 -51q-362 0 -621 255t-259 617v869q213 0 329.5 -117t116.5 -279v-473q0 -180 127 -312t307 -132t306.5 132t126.5 312v473q0 162 116.5 279t329.5 117v-869q0 -360 -258.5 -616t-620.5 -256z" />
<glyph unicode="v" horiz-adv-x="1916" d="M827 -51h-878v1741q213 0 329.5 -117t116.5 -279v-917h432q180 0 307.5 130t127.5 310v477q0 162 116.5 279t329.5 117v-873q0 -362 -259.5 -615t-621.5 -253z" />
<glyph unicode="w" horiz-adv-x="3229" d="M2142 -51q-393 0 -655 293q-268 -293 -660 -293q-362 0 -620 254t-258 614v873q213 0 329.5 -117t116.5 -279v-477q0 -180 126 -310t306 -130t307.5 130t127.5 310v873q213 0 329.5 -117t116.5 -279v-477q0 -180 127 -310t307 -130t306 130t126 310v477q0 162 117 279 t330 117v-873q0 -362 -258.5 -615t-620.5 -253z" />
<glyph unicode="x" horiz-adv-x="1931" d="M1262 -51v235q0 180 -126 312.5t-307 132.5q-182 0 -308 -131t-126 -314v-235h-446v235q0 397 307 660q-307 258 -307 657v164h446v-164q0 -180 127 -312t307 -132t306.5 132t126.5 312v164h446v-164q0 -397 -305 -657q145 -123 225 -296t80 -364v-235h-446z" />
<glyph unicode="y" horiz-adv-x="1927" d="M1262 -66v15h-433q-362 0 -621 253t-259 615v873q213 0 329.5 -117t116.5 -279v-477q0 -180 127 -310t307 -130h433v917q0 162 116.5 279t329.5 117l2 -2151q-213 0 -330.5 116.5t-117.5 278.5z" />
<glyph unicode="z" horiz-adv-x="2062" d="M1432 -51q-289 0 -496 201.5t-207 490.5v285q0 139 -95 237.5t-235 98.5h-71q-158 0 -268.5 110.5t-110.5 317.5h522q289 0 494.5 -202t205.5 -491v-284q0 -137 96.5 -236.5t233.5 -99.5h76q156 0 266.5 -110.5t110.5 -317.5h-522z" />
<glyph unicode="&#xaa;" horiz-adv-x="1933" d="M829 -51q-362 0 -621 254t-259 614t259 616.5t621 256.5t622.5 -256t260.5 -617v-868h-883zM1262 817q0 182 -125 313.5t-308 131.5q-182 0 -307 -131.5t-125 -313.5q0 -180 126 -310t306 -130h433v440z" />
<glyph unicode="&#xad;" horiz-adv-x="1570" d="M328 606q-156 0 -267.5 110.5t-111.5 315.5h1036q156 0 267.5 -110.5t111.5 -315.5h-1036z" />
<glyph unicode="&#xb2;" horiz-adv-x="2058" d="M729 -51v977q0 139 -95 237.5t-235 98.5h-71q-158 0 -268.5 110.5t-110.5 317.5h522q289 0 494.5 -203t205.5 -490l3 -620h403q156 0 266.5 -110.5t110.5 -317.5h-1225z" />
<glyph unicode="&#xb3;" horiz-adv-x="1558" d="M485 -51h-536q0 207 111.5 317.5t267.5 110.5h157q119 0 220.5 62.5t158.5 166.5h-536q-156 0 -267.5 110.5t-111.5 315.5h915q-57 104 -158.5 167t-220.5 63h-157q-156 0 -267.5 110.5t-111.5 317.5h536q362 0 620.5 -256t258.5 -617q0 -362 -258.5 -615t-620.5 -253z " />
<glyph unicode="&#xb9;" d="M-51 -51v1741q213 0 329.5 -117t116.5 -279v-1345h-446z" />
<glyph unicode="&#xba;" horiz-adv-x="1902" d="M827 -51q-362 0 -620 254t-258 614t258 616.5t620 256.5t621.5 -256t259.5 -617q0 -360 -259.5 -614t-621.5 -254zM827 1262q-182 0 -307 -131.5t-125 -313.5q0 -180 126 -310t306 -130t307.5 130t127.5 310q0 182 -127.5 313.5t-307.5 131.5z" />
<glyph unicode="&#x152;" horiz-adv-x="3459" d="M2888 606h-272q-90 0 -151.5 60.5t-61.5 150.5t61.5 152.5t151.5 62.5h651q0 -205 -111.5 -315.5t-267.5 -110.5zM2730 -51q-362 0 -620 254t-258 614t258 616.5t620 256.5h537q0 -207 -111.5 -317.5t-267.5 -110.5h-158q-180 0 -306 -132.5t-126 -312.5t126 -310 t306 -130h158q156 0 267.5 -110.5t111.5 -317.5h-537zM827 -51q-362 0 -620 254t-258 614t258 616.5t620 256.5t621.5 -256t259.5 -617q0 -360 -259.5 -614t-621.5 -254zM827 1262q-182 0 -307 -131.5t-125 -313.5q0 -180 126 -310t306 -130t307.5 130t127.5 310 q0 182 -127.5 313.5t-307.5 131.5z" />
<glyph unicode="&#x153;" horiz-adv-x="3459" d="M2888 606h-272q-90 0 -151.5 60.5t-61.5 150.5t61.5 152.5t151.5 62.5h651q0 -205 -111.5 -315.5t-267.5 -110.5zM2730 -51q-362 0 -620 254t-258 614t258 616.5t620 256.5h537q0 -207 -111.5 -317.5t-267.5 -110.5h-158q-180 0 -306 -132.5t-126 -312.5t126 -310 t306 -130h158q156 0 267.5 -110.5t111.5 -317.5h-537zM827 -51q-362 0 -620 254t-258 614t258 616.5t620 256.5t621.5 -256t259.5 -617q0 -360 -259.5 -614t-621.5 -254zM827 1262q-182 0 -307 -131.5t-125 -313.5q0 -180 126 -310t306 -130t307.5 130t127.5 310 q0 182 -127.5 313.5t-307.5 131.5z" />
<glyph unicode="&#x2000;" horiz-adv-x="1269" />
<glyph unicode="&#x2001;" horiz-adv-x="2541" />
<glyph unicode="&#x2002;" horiz-adv-x="1269" />
<glyph unicode="&#x2003;" horiz-adv-x="2541" />
<glyph unicode="&#x2004;" horiz-adv-x="845" />
<glyph unicode="&#x2005;" horiz-adv-x="634" />
<glyph unicode="&#x2006;" horiz-adv-x="421" />
<glyph unicode="&#x2007;" horiz-adv-x="421" />
<glyph unicode="&#x2008;" horiz-adv-x="317" />
<glyph unicode="&#x2009;" horiz-adv-x="507" />
<glyph unicode="&#x200a;" horiz-adv-x="139" />
<glyph unicode="&#x2010;" horiz-adv-x="1570" d="M328 606q-156 0 -267.5 110.5t-111.5 315.5h1036q156 0 267.5 -110.5t111.5 -315.5h-1036z" />
<glyph unicode="&#x2011;" horiz-adv-x="1570" d="M328 606q-156 0 -267.5 110.5t-111.5 315.5h1036q156 0 267.5 -110.5t111.5 -315.5h-1036z" />
<glyph unicode="&#x2012;" horiz-adv-x="1570" d="M328 606q-156 0 -267.5 110.5t-111.5 315.5h1036q156 0 267.5 -110.5t111.5 -315.5h-1036z" />
<glyph unicode="&#x2013;" horiz-adv-x="1024" d="M205 512v205h614v-205h-614z" />
<glyph unicode="&#x2014;" horiz-adv-x="2048" d="M205 512v205h1638v-205h-1638z" />
<glyph unicode="&#x2019;" horiz-adv-x="612" d="M-51 1239v451q213 0 329.5 -117t116.5 -279v-450q-213 0 -329.5 115.5t-116.5 279.5z" />
<glyph unicode="&#x201c;" horiz-adv-x="1058" d="M395 1239v451q213 0 330 -117t117 -279v-450q-213 0 -330 115.5t-117 279.5zM-51 1239v451q213 0 329.5 -117t116.5 -279v-450q-213 0 -329.5 115.5t-116.5 279.5z" />
<glyph unicode="&#x201d;" horiz-adv-x="1058" d="M395 1239v451q213 0 330 -117t117 -279v-450q-213 0 -330 115.5t-117 279.5zM-51 1239v451q213 0 329.5 -117t116.5 -279v-450q-213 0 -329.5 115.5t-116.5 279.5z" />
<glyph unicode="&#x2026;" horiz-adv-x="1843" d="M1178 344v170q213 0 329.5 -116.5t116.5 -278.5v-170q-213 0 -329.5 116.5t-116.5 278.5zM563 344v170q213 0 329.5 -116.5t116.5 -278.5v-170q-213 0 -329.5 116.5t-116.5 278.5zM-51 344v170q213 0 329.5 -116.5t116.5 -278.5v-170q-213 0 -329.5 116.5t-116.5 278.5z " />
<glyph unicode="&#x202f;" horiz-adv-x="507" />
<glyph unicode="&#x205f;" horiz-adv-x="634" />
<glyph unicode="&#x2122;" horiz-adv-x="5089" d="M4421 344v473q0 182 -125 313.5t-307 131.5q-180 0 -307 -132.5t-127 -312.5v-868q-213 0 -329.5 116.5t-116.5 278.5v473q0 182 -125 313.5t-308 131.5q-180 0 -307 -132.5t-127 -312.5v-473q0 -164 -115.5 -279.5t-330.5 -115.5v868q0 360 259 616.5t621 256.5 q391 0 658 -293q125 137 297 215t358 78q362 0 620.5 -255t258.5 -618v-868q-213 0 -330 116.5t-117 278.5zM1325 1237h-276v-1288q-213 0 -330 116.5t-117 278.5v893h-276q-156 0 -266.5 110.5t-110.5 317.5h1753q0 -207 -110.5 -317.5t-266.5 -110.5z" />
<glyph unicode="&#xe000;" horiz-adv-x="1665" d="M0 1665h1665v-1665h-1665v1665z" />
<glyph unicode="&#xfb01;" horiz-adv-x="2115" d="M1440 344v1346q213 0 329.5 -117t116.5 -279v-1345q-213 0 -329.5 116.5t-116.5 278.5zM985 606h-272q-90 0 -151.5 60.5t-61.5 150.5t61.5 152.5t151.5 62.5h651q0 -205 -111.5 -315.5t-267.5 -110.5zM987 1262h-158q-180 0 -307 -130.5t-127 -310.5v-477 q0 -162 -116.5 -278.5t-329.5 -116.5v872q0 360 259 614.5t621 254.5h535q0 -207 -110.5 -317.5t-266.5 -110.5z" />
<glyph unicode="&#xfb02;" horiz-adv-x="2764" d="M2320 -51q-362 0 -621 254t-259 614v1280q213 0 329.5 -116.5t116.5 -278.5v-885q0 -180 127 -310t307 -130h158q156 0 266.5 -110.5t110.5 -317.5h-535zM985 606h-272q-90 0 -151.5 60.5t-61.5 150.5t61.5 152.5t151.5 62.5h651q0 -205 -111.5 -315.5t-267.5 -110.5z M987 1262h-158q-180 0 -307 -130.5t-127 -310.5v-477q0 -162 -116.5 -278.5t-329.5 -116.5v872q0 360 259 614.5t621 254.5h535q0 -207 -110.5 -317.5t-266.5 -110.5z" />
<glyph unicode="&#xfb03;" horiz-adv-x="3606" d="M2931 344v1346q213 0 329.5 -117t116.5 -279v-1345q-213 0 -329.5 116.5t-116.5 278.5zM2476 606h-272q-90 0 -151.5 60.5t-61.5 150.5t61.5 152.5t151.5 62.5h651q0 -205 -111.5 -315.5t-267.5 -110.5zM2478 1262h-158q-180 0 -307 -130.5t-127 -310.5v-477 q0 -162 -116.5 -278.5t-329.5 -116.5v872q0 360 259 614.5t621 254.5h535q0 -207 -110.5 -317.5t-266.5 -110.5zM985 606h-272q-90 0 -151.5 60.5t-61.5 150.5t61.5 152.5t151.5 62.5h651q0 -205 -111.5 -315.5t-267.5 -110.5zM987 1262h-158q-180 0 -307 -130.5 t-127 -310.5v-477q0 -162 -116.5 -278.5t-329.5 -116.5v872q0 360 259 614.5t621 254.5h535q0 -207 -110.5 -317.5t-266.5 -110.5z" />
<glyph unicode="&#xfb04;" horiz-adv-x="4255" d="M3811 -51q-362 0 -621 254t-259 614v1280q213 0 329.5 -116.5t116.5 -278.5v-885q0 -180 127 -310t307 -130h158q156 0 266.5 -110.5t110.5 -317.5h-535zM2476 606h-272q-90 0 -151.5 60.5t-61.5 150.5t61.5 152.5t151.5 62.5h651q0 -205 -111.5 -315.5t-267.5 -110.5z M2478 1262h-158q-180 0 -307 -130.5t-127 -310.5v-477q0 -162 -116.5 -278.5t-329.5 -116.5v872q0 360 259 614.5t621 254.5h535q0 -207 -110.5 -317.5t-266.5 -110.5zM985 606h-272q-90 0 -151.5 60.5t-61.5 150.5t61.5 152.5t151.5 62.5h651q0 -205 -111.5 -315.5 t-267.5 -110.5zM987 1262h-158q-180 0 -307 -130.5t-127 -310.5v-477q0 -162 -116.5 -278.5t-329.5 -116.5v872q0 360 259 614.5t621 254.5h535q0 -207 -110.5 -317.5t-266.5 -110.5z" />
</font>
</defs>
</svg>
