<?xml version="1.0" standalone="no"?>
<!DOCTYPE svg PUBLIC "-//W3C//DTD SVG 1.1//EN" "http://www.w3.org/Graphics/SVG/1.1/DTD/svg11.dtd" >
<svg xmlns="http://www.w3.org/2000/svg">
<metadata>
This is a custom SVG webfont generated by Font Squirrel.
Copyright   : c 2001 Levi
</metadata>
<defs>
<font id="webfontvSI50l3t" horiz-adv-x="1816" >
<font-face units-per-em="2048" ascent="1638" descent="-410" />
<missing-glyph horiz-adv-x="907" />
<glyph unicode=" "  horiz-adv-x="907" />
<glyph unicode="&#x09;" horiz-adv-x="907" />
<glyph unicode="&#xa0;" horiz-adv-x="907" />
<glyph unicode="!" horiz-adv-x="509" d="M344 1294q0 141 -101.5 242.5t-242.5 101.5v-796q0 -141 101.5 -242.5t242.5 -101.5v796zM344 119q0 141 -101.5 242.5t-242.5 101.5v-119q0 -141 101.5 -242.5t242.5 -101.5v119z" />
<glyph unicode="&#x22;" horiz-adv-x="956" d="M344 1294q0 141 -101.5 242.5t-242.5 101.5v-399q0 -143 100.5 -243.5t243.5 -100.5v399zM791 1294q0 141 -101.5 242.5t-243.5 101.5v-399q0 -143 100.5 -243.5t244.5 -100.5v399z" />
<glyph unicode="'" horiz-adv-x="509" d="M344 1294q0 141 -101.5 242.5t-242.5 101.5v-399q0 -143 100.5 -243.5t243.5 -100.5v399z" />
<glyph unicode="+" horiz-adv-x="1417" d="M819 1477v-496h166q135 0 231.5 -94t96.5 -230h-494v-165q0 -137 -95 -233.5t-230 -96.5v495h-166q-135 0 -231.5 94.5t-96.5 229.5h494v166q0 137 95 233.5t230 96.5z" />
<glyph unicode="," horiz-adv-x="514" d="M344 119q0 141 -101.5 242.5t-242.5 101.5v-402q0 -141 101.5 -242.5t242.5 -101.5v402z" />
<glyph unicode="-" horiz-adv-x="1466" d="M1313 657q0 135 -96.5 229.5t-231.5 94.5h-985q0 -135 96.5 -229.5t231.5 -94.5h985z" />
<glyph unicode="." horiz-adv-x="512" d="M344 119q0 141 -101.5 242.5t-242.5 101.5v-119q0 -141 101.5 -242.5t242.5 -101.5v119z" />
<glyph unicode="/" horiz-adv-x="829" d="M604 1638h277l-605 -1638h-276z" />
<glyph unicode="0" horiz-adv-x="1814" d="M827 326q-203 0 -343 146t-140 349v492h969v-479q0 -203 -142.5 -355.5t-343.5 -152.5zM1655 1638h-1655v-817q0 -340 243.5 -580.5t583.5 -240.5t584 240.5t244 580.5v817z" />
<glyph unicode="1" horiz-adv-x="514" d="M344 1294q0 141 -101.5 242.5t-242.5 101.5v-1638h344v1294z" />
<glyph unicode="2" horiz-adv-x="1935" d="M1120 997q0 266 -190.5 453.5t-458.5 187.5h-471q0 -137 95 -231t233 -94h71q160 0 270.5 -114t110.5 -273v-926h1123q0 135 -95.5 230.5t-230.5 95.5h-455z" />
<glyph unicode="3" horiz-adv-x="1445" d="M942 657h-614q-135 0 -231.5 94.5t-96.5 229.5h942q-51 147 -176 239.5t-281 92.5h-157q-135 0 -231.5 95t-96.5 230h485q340 0 584 -240.5t244 -580.5t-243 -578.5t-585 -238.5h-485q0 135 96.5 230.5t231.5 95.5h157q156 0 281 92t176 239z" />
<glyph unicode="4" horiz-adv-x="1622" d="M1108 344q0 -141 101.5 -242.5t242.5 -101.5v1294q0 143 -100.5 243.5t-243.5 100.5v-657h-764v313q0 141 -101.5 242.5t-242.5 101.5v-639q0 -141 100.5 -241.5t243.5 -100.5h764v-313z" />
<glyph unicode="5" horiz-adv-x="1976" d="M780 997q0 266 191.5 453.5t460.5 187.5h471q0 -137 -96.5 -231t-233.5 -94h-72q-158 0 -269.5 -114t-111.5 -273v-926h-1120q0 135 95 230.5t231 95.5h452z" />
<glyph unicode="6" horiz-adv-x="1794" d="M0 1673q0 340 244.5 578.5t584.5 238.5h484q0 -135 -95.5 -230t-230.5 -95h-158q-203 0 -344 -144.5t-141 -347.5v-35h487q342 0 587 -238.5t245 -578.5t-246 -580.5t-586 -240.5t-584.5 240.5t-244.5 580.5zM348 1313v-492q0 -203 140.5 -349t342.5 -146 q203 0 343.5 146t140.5 349t-140.5 347.5t-343.5 144.5h-483z" />
<glyph unicode="7" horiz-adv-x="1472" d="M1313 0v821q0 340 -245 578.5t-585 238.5h-483q0 -135 95 -230t231 -95h157q203 0 344.5 -144.5t141.5 -347.5v-821h344z" />
<glyph unicode="8" horiz-adv-x="1789" d="M1657 817q0 -340 -245 -578.5t-585 -238.5t-583.5 238.5t-243.5 578.5t243.5 580.5t583.5 240.5t585 -240.5t245 -580.5zM371 981h913q-51 147 -176 239.5t-281 92.5t-280.5 -92.5t-175.5 -239.5zM1286 657h-915q49 -147 175 -239t281 -92q156 0 281 90.5t178 240.5z" />
<glyph unicode="9" horiz-adv-x="1820" d="M1663 -35q0 -342 -244.5 -579.5t-587.5 -237.5h-483q0 135 95.5 230.5t230.5 95.5h157q203 0 345.5 144t142.5 347v35h-490q-340 0 -584.5 238.5t-244.5 578.5t244.5 580.5t584.5 240.5t586 -240.5t246 -580.5zM1313 326v491q0 203 -140.5 349.5t-343.5 146.5 t-343 -146.5t-140 -349.5t140.5 -347t342.5 -144h484z" />
<glyph unicode=":" horiz-adv-x="509" d="M344 119q0 141 -101.5 242.5t-242.5 101.5v-119q0 -141 101.5 -242.5t242.5 -101.5v119zM344 616q0 141 -100.5 241.5t-243.5 100.5v-116q0 -141 101.5 -242.5t242.5 -101.5v118z" />
<glyph unicode=";" horiz-adv-x="509" d="M344 119q0 141 -101.5 242.5t-242.5 101.5v-402q0 -141 101.5 -242.5t242.5 -101.5v402zM344 616q0 141 -100.5 241.5t-243.5 100.5v-116q0 -141 101.5 -242.5t242.5 -101.5v118z" />
<glyph unicode="=" horiz-adv-x="1406" d="M1313 373q0 135 -96.5 230t-231.5 95h-985q0 -135 96.5 -230t231.5 -95h985zM1313 946q0 135 -96.5 230.5t-231.5 95.5h-985q0 -135 96.5 -230.5t231.5 -95.5h985z" />
<glyph unicode="?" horiz-adv-x="1280" d="M778 842q-2 -143 98.5 -243.5t243.5 -100.5v499q0 266 -190.5 453.5t-458.5 187.5h-471q0 -137 95 -231t233 -94h71q160 0 270.5 -114t110.5 -273v-29q-2 -2 -2 -55zM1120 119q0 143 -100 243.5t-242 100.5v-119q0 -143 100.5 -243.5t241.5 -100.5v119z" />
<glyph unicode="A" horiz-adv-x="1820" d="M1661 817v-817h-832q-340 0 -584.5 238.5t-244.5 578.5t244.5 580.5t584.5 240.5t586 -240.5t246 -580.5zM1313 326v491q0 203 -140.5 349.5t-343.5 146.5t-343 -146.5t-140 -349.5t140.5 -347t342.5 -144h484z" />
<glyph unicode="B" horiz-adv-x="1792" d="M344 1702v-64h485q342 0 587 -238.5t245 -578.5t-246 -580.5t-586 -240.5t-584.5 240.5t-244.5 580.5v1225q141 0 242.5 -101.5t101.5 -242.5zM1313 821q0 203 -140.5 347.5t-343.5 144.5h-483v-492q0 -203 140.5 -349t342.5 -146q203 0 343.5 146t140.5 349z" />
<glyph unicode="C" horiz-adv-x="1378" d="M827 0q-340 0 -583.5 238.5t-243.5 578.5t243.5 580.5t583.5 240.5h484q0 -135 -95.5 -230t-230.5 -95h-158q-203 0 -345 -146.5t-142 -349.5t142.5 -347t344.5 -144h158q135 0 230.5 -95.5t95.5 -230.5h-484z" />
<glyph unicode="D" horiz-adv-x="1794" d="M0 817v-817h829q342 0 587 238.5t245 578.5t-246 580.5t-586 240.5t-584.5 -240.5t-244.5 -580.5zM346 326v491q0 203 140.5 349.5t342.5 146.5q203 0 343.5 -146.5t140.5 -349.5t-140.5 -347t-343.5 -144h-483z" />
<glyph unicode="E" horiz-adv-x="1419" d="M827 0q-340 0 -583.5 238.5t-243.5 578.5t243.5 580.5t583.5 240.5h486q0 -135 -96.5 -230t-231.5 -95h-158q-201 0 -342 -147.5t-141 -348.5t141.5 -346t341.5 -145h158q135 0 231.5 -95.5t96.5 -230.5h-486zM713 981h600q0 -135 -96.5 -229.5t-231.5 -94.5h-272 q-68 0 -115 46.5t-47 113.5q0 70 46 117t116 47z" />
<glyph unicode="F" horiz-adv-x="1372" d="M713 981h600q0 -135 -96.5 -229.5t-231.5 -94.5h-272q-68 0 -115 46.5t-47 113.5q0 70 46 117t116 47zM344 821q0 203 141.5 347.5t343.5 144.5h158q135 0 230.5 95t95.5 230h-484q-340 0 -584.5 -238.5t-244.5 -578.5v-821q141 0 242.5 101.5t101.5 242.5v477z" />
<glyph unicode="G" d="M1313 821q0 -205 -140.5 -350t-343.5 -145t-344 144t-141 347t141.5 349.5t343.5 146.5h158q135 0 230.5 95t95.5 230h-484q-340 0 -584.5 -240.5t-244.5 -580.5t244.5 -578.5t584.5 -238.5q297 0 521 186q98 -186 307 -186v1165q-141 0 -242.5 -101.5t-101.5 -242.5z " />
<glyph unicode="H" horiz-adv-x="1622" d="M1452 1294q0 143 -100.5 243.5t-243.5 100.5v-657h-764v313q0 141 -101.5 242.5t-242.5 101.5v-1294q0 -141 101.5 -242.5t242.5 -101.5v657h764v-313q0 -141 101.5 -242.5t242.5 -101.5v1294z" />
<glyph unicode="I" horiz-adv-x="514" d="M344 1294q0 141 -101.5 242.5t-242.5 101.5v-1294q0 -141 101.5 -242.5t242.5 -101.5v1294z" />
<glyph unicode="J" horiz-adv-x="1472" d="M969 817q0 -203 -141.5 -347t-344.5 -144h-157q-135 0 -230.5 -95.5t-95.5 -230.5h483q340 0 585 238.5t245 578.5v821q-141 0 -242.5 -101t-101.5 -243v-477z" />
<glyph unicode="K" horiz-adv-x="1787" d="M344 0h-344v1638q141 0 242.5 -101t101.5 -243v-329h455q201 0 342 147.5t141 347.5v154h344v-154q0 -197 -89 -369.5t-247 -289.5q158 -117 247 -290t89 -368v-143h-344v143q0 201 -141.5 348.5t-341.5 147.5h-455v-639z" />
<glyph unicode="L" horiz-adv-x="1329" d="M344 817q0 -203 141.5 -347t343.5 -144h158q135 0 230.5 -95.5t95.5 -230.5h-484q-340 0 -584.5 238.5t-244.5 578.5v821q141 0 242.5 -101t101.5 -243v-477z" />
<glyph unicode="M" horiz-adv-x="3129" d="M1657 817v-817q-141 0 -242.5 101.5t-101.5 242.5v473q0 203 -140.5 349.5t-343.5 146.5t-344 -146.5t-141 -349.5v-473q0 -143 -100.5 -243.5t-243.5 -100.5v817q0 340 244.5 580.5t584.5 240.5q193 0 365 -85t293 -236q117 150 291 235.5t364 85.5q342 0 585 -239.5 t243 -581.5v-817q-141 0 -242.5 101.5t-101.5 242.5v473q0 203 -140.5 349.5t-343.5 146.5t-344 -146.5t-141 -349.5z" />
<glyph unicode="N" d="M1313 817q0 201 -141.5 348.5t-342.5 147.5q-203 0 -344 -146.5t-141 -349.5v-473q0 -141 -101.5 -242.5t-242.5 -101.5v817q0 340 243.5 580.5t585.5 240.5q340 0 584 -240.5t244 -580.5v-817q-141 0 -242.5 101.5t-101.5 242.5v473z" />
<glyph unicode="O" horiz-adv-x="1789" d="M827 1638q340 0 585 -240.5t245 -580.5t-245 -578.5t-585 -238.5t-583.5 238.5t-243.5 578.5t243.5 580.5t583.5 240.5zM827 1313q-203 0 -343 -146.5t-140 -349.5t140.5 -347t342.5 -144q203 0 344.5 144t141.5 347t-141.5 349.5t-344.5 146.5z" />
<glyph unicode="P" horiz-adv-x="1794" d="M344 -66v66h485q342 0 587 238.5t245 578.5t-246 580.5t-586 240.5t-584.5 -240.5t-244.5 -580.5v-1227q141 0 242.5 101.5t101.5 242.5zM346 326v491q0 203 140.5 349.5t342.5 146.5q203 0 343.5 -146.5t140.5 -349.5t-140.5 -347t-343.5 -144h-483z" />
<glyph unicode="Q" horiz-adv-x="1804" d="M1313 -66v66h-484q-340 0 -584.5 238.5t-244.5 578.5t244.5 580.5t584.5 240.5t585 -240.5t245 -580.5v-1227q-143 0 -244.5 101.5t-101.5 242.5zM1313 326v491q0 203 -140.5 349.5t-343.5 146.5t-343 -146.5t-140 -349.5t140.5 -347t342.5 -144h484z" />
<glyph unicode="R" horiz-adv-x="1333" d="M344 821q0 203 141.5 347.5t343.5 144.5h158q135 0 230.5 95t95.5 230h-484q-340 0 -584.5 -238.5t-244.5 -578.5v-821q141 0 242.5 101.5t101.5 242.5v477z" />
<glyph unicode="S" horiz-adv-x="1943" d="M780 997q0 266 191.5 453.5t460.5 187.5h471q0 -137 -96.5 -231t-233.5 -94h-72q-158 0 -269.5 -114t-111.5 -273v-285q0 -266 -190.5 -453.5t-458.5 -187.5h-471q0 135 95 230.5t231 95.5h73q160 0 270.5 113.5t110.5 273.5v284z" />
<glyph unicode="T" horiz-adv-x="1736" d="M1651 1614q0 -135 -95.5 -230.5t-230.5 -95.5h-328v-1288q-141 0 -242.5 101.5t-101.5 242.5v944h-327q-135 0 -230.5 95.5t-95.5 230.5h1651z" />
<glyph unicode="U" d="M1313 821q0 -201 -141.5 -348t-342.5 -147q-203 0 -344 146t-141 349v473q0 141 -101.5 242.5t-242.5 101.5v-817q0 -340 243.5 -580.5t585.5 -240.5q340 0 584 240.5t244 580.5v817q-141 0 -242.5 -101t-101.5 -243v-473z" />
<glyph unicode="V" d="M0 0h827q342 0 586 238.5t244 578.5v821q-141 0 -242.5 -101t-101.5 -243v-477q0 -203 -141.5 -347t-344.5 -144h-483v968q0 141 -101.5 242.5t-242.5 101.5v-1638z" />
<glyph unicode="W" horiz-adv-x="3129" d="M1313 817v821q141 0 242.5 -101t101.5 -243v-477q0 -203 141 -347t344 -144t343.5 144t140.5 347v477q0 141 101 242.5t243 101.5v-821q0 -340 -243 -578.5t-585 -238.5q-193 0 -364.5 85t-290.5 237q-121 -152 -295 -237t-365 -85q-340 0 -583.5 238.5t-243.5 578.5v821 q141 0 242.5 -101t101.5 -243v-477q0 -201 141.5 -346t341.5 -145q203 0 344.5 144t141.5 347z" />
<glyph unicode="X" horiz-adv-x="1818" d="M1657 0h-344v184q0 201 -141.5 348.5t-342.5 147.5q-203 0 -344 -146.5t-141 -349.5v-184h-344v184q0 197 89 370t249 290q-160 117 -249 289t-89 368v113h344v-113q0 -203 141.5 -349t343.5 -146q201 0 342.5 147t141.5 348v113h344v-113q0 -197 -89 -368.5t-247 -288.5 q158 -117 247 -291t89 -369v-184z" />
<glyph unicode="Y" horiz-adv-x="1771" d="M1001 0h-346v430q-285 61 -470 285.5t-185 515.5v407q141 0 242.5 -101t101.5 -243v-63q0 -203 141.5 -349.5t343.5 -146.5q201 0 342.5 147.5t141.5 348.5v63q0 141 101.5 242.5t242.5 101.5v-407q0 -291 -185.5 -516.5t-470.5 -286.5v-428z" />
<glyph unicode="Z" horiz-adv-x="1939" d="M1120 997q0 266 -190.5 453.5t-458.5 187.5h-471q0 -137 95 -231t233 -94h71q160 0 270.5 -114t110.5 -273v-285q0 -266 191.5 -453.5t460.5 -187.5h471q0 135 -95.5 230.5t-230.5 95.5h-76q-158 0 -269.5 113.5t-111.5 273.5v284z" />
<glyph unicode="\" horiz-adv-x="985" d="M276 1638h-276l604 -1638h277z" />
<glyph unicode="_" horiz-adv-x="1466" d="M1313 0q0 135 -96.5 230.5t-231.5 95.5h-985q0 -135 96.5 -230.5t231.5 -95.5h985z" />
<glyph unicode="a" horiz-adv-x="1820" d="M1661 817v-817h-832q-340 0 -584.5 238.5t-244.5 578.5t244.5 580.5t584.5 240.5t586 -240.5t246 -580.5zM1313 326v491q0 203 -140.5 349.5t-343.5 146.5t-343 -146.5t-140 -349.5t140.5 -347t342.5 -144h484z" />
<glyph unicode="b" horiz-adv-x="1792" d="M344 1702v-64h485q342 0 587 -238.5t245 -578.5t-246 -580.5t-586 -240.5t-584.5 240.5t-244.5 580.5v1225q141 0 242.5 -101.5t101.5 -242.5zM1313 821q0 203 -140.5 347.5t-343.5 144.5h-483v-492q0 -203 140.5 -349t342.5 -146q203 0 343.5 146t140.5 349z" />
<glyph unicode="c" horiz-adv-x="1378" d="M827 0q-340 0 -583.5 238.5t-243.5 578.5t243.5 580.5t583.5 240.5h484q0 -135 -95.5 -230t-230.5 -95h-158q-203 0 -345 -146.5t-142 -349.5t142.5 -347t344.5 -144h158q135 0 230.5 -95.5t95.5 -230.5h-484z" />
<glyph unicode="d" horiz-adv-x="1794" d="M0 817v-817h829q342 0 587 238.5t245 578.5t-246 580.5t-586 240.5t-584.5 -240.5t-244.5 -580.5zM346 326v491q0 203 140.5 349.5t342.5 146.5q203 0 343.5 -146.5t140.5 -349.5t-140.5 -347t-343.5 -144h-483z" />
<glyph unicode="e" horiz-adv-x="1419" d="M827 0q-340 0 -583.5 238.5t-243.5 578.5t243.5 580.5t583.5 240.5h486q0 -135 -96.5 -230t-231.5 -95h-158q-201 0 -342 -147.5t-141 -348.5t141.5 -346t341.5 -145h158q135 0 231.5 -95.5t96.5 -230.5h-486zM713 981h600q0 -135 -96.5 -229.5t-231.5 -94.5h-272 q-68 0 -115 46.5t-47 113.5q0 70 46 117t116 47z" />
<glyph unicode="f" horiz-adv-x="1372" d="M713 981h600q0 -135 -96.5 -229.5t-231.5 -94.5h-272q-68 0 -115 46.5t-47 113.5q0 70 46 117t116 47zM344 821q0 203 141.5 347.5t343.5 144.5h158q135 0 230.5 95t95.5 230h-484q-340 0 -584.5 -238.5t-244.5 -578.5v-821q141 0 242.5 101.5t101.5 242.5v477z" />
<glyph unicode="g" horiz-adv-x="1820" d="M1663 -35q0 -342 -244.5 -579.5t-587.5 -237.5h-483q0 135 95.5 230.5t230.5 95.5h157q203 0 345.5 144t142.5 347v35h-490q-340 0 -584.5 238.5t-244.5 578.5t244.5 580.5t584.5 240.5t586 -240.5t246 -580.5zM1313 326v491q0 203 -140.5 349.5t-343.5 146.5 t-343 -146.5t-140 -349.5t140.5 -347t342.5 -144h484z" />
<glyph unicode="h" d="M829 1638q340 0 584 -240.5t244 -580.5v-817q-141 0 -242.5 101.5t-101.5 242.5v473q0 201 -141.5 348.5t-342.5 147.5q-203 0 -344 -146.5t-141 -349.5v-473q0 -141 -101.5 -242.5t-242.5 -101.5v2046q141 0 242.5 -101.5t101.5 -242.5v-213q161 149 485 149z" />
<glyph unicode="i" horiz-adv-x="514" d="M344 1294q0 141 -101.5 242.5t-242.5 101.5v-1294q0 -141 101.5 -242.5t242.5 -101.5v1294z" />
<glyph unicode="j" horiz-adv-x="1472" d="M969 817q0 -203 -141.5 -347t-344.5 -144h-157q-135 0 -230.5 -95.5t-95.5 -230.5h483q340 0 585 238.5t245 578.5v821q-141 0 -242.5 -101t-101.5 -243v-477z" />
<glyph unicode="k" horiz-adv-x="1789" d="M344 0h-344v2046q141 0 242.5 -101.5t101.5 -242.5v-737h455q201 0 342 147.5t141 347.5v154h344v-154q0 -197 -89 -369.5t-247 -289.5q158 -117 247 -290t89 -368v-143h-344v143q0 201 -141.5 348.5t-341.5 147.5h-455v-639z" />
<glyph unicode="l" horiz-adv-x="1224" d="M344 817q0 -203 141.5 -347t343.5 -144h158q135 0 230.5 -95.5t95.5 -230.5h-484q-340 0 -584.5 238.5t-244.5 578.5v1229q141 0 242.5 -101.5t101.5 -242.5v-885z" />
<glyph unicode="m" horiz-adv-x="3129" d="M1657 817v-817q-141 0 -242.5 101.5t-101.5 242.5v473q0 203 -140.5 349.5t-343.5 146.5t-344 -146.5t-141 -349.5v-473q0 -143 -100.5 -243.5t-243.5 -100.5v817q0 340 244.5 580.5t584.5 240.5q193 0 365 -85t293 -236q117 150 291 235.5t364 85.5q340 0 584 -240.5 t244 -580.5v-817q-141 0 -242.5 101.5t-101.5 242.5v473q0 203 -140.5 349.5t-343.5 146.5t-344 -146.5t-141 -349.5z" />
<glyph unicode="n" d="M1313 817q0 201 -141.5 348.5t-342.5 147.5q-203 0 -344 -146.5t-141 -349.5v-473q0 -141 -101.5 -242.5t-242.5 -101.5v817q0 340 243.5 580.5t585.5 240.5q340 0 584 -240.5t244 -580.5v-817q-141 0 -242.5 101.5t-101.5 242.5v473z" />
<glyph unicode="o" horiz-adv-x="1789" d="M827 1638q340 0 585 -240.5t245 -580.5t-245 -578.5t-585 -238.5t-583.5 238.5t-243.5 578.5t243.5 580.5t583.5 240.5zM827 1313q-203 0 -343 -146.5t-140 -349.5t140.5 -347t342.5 -144q203 0 344.5 144t141.5 347t-141.5 349.5t-344.5 146.5z" />
<glyph unicode="p" horiz-adv-x="1794" d="M344 -66v66h485q342 0 587 238.5t245 578.5t-246 580.5t-586 240.5t-584.5 -240.5t-244.5 -580.5v-1227q141 0 242.5 101.5t101.5 242.5zM346 326v491q0 203 140.5 349.5t342.5 146.5q203 0 343.5 -146.5t140.5 -349.5t-140.5 -347t-343.5 -144h-483z" />
<glyph unicode="q" horiz-adv-x="1804" d="M1313 -66v66h-484q-340 0 -584.5 238.5t-244.5 578.5t244.5 580.5t584.5 240.5t585 -240.5t245 -580.5v-1227q-143 0 -244.5 101.5t-101.5 242.5zM1313 326v491q0 203 -140.5 349.5t-343.5 146.5t-343 -146.5t-140 -349.5t140.5 -347t342.5 -144h484z" />
<glyph unicode="r" horiz-adv-x="1413" d="M377 821q0 203 141 347.5t344 144.5h158q135 0 230.5 95t95.5 230h-484q-340 0 -584.5 -238.5t-244.5 -578.5v-821q141 0 242.5 101.5t101.5 242.5v477z" />
<glyph unicode="s" horiz-adv-x="1988" d="M780 997q0 266 191.5 453.5t460.5 187.5h471q0 -137 -96.5 -231t-233.5 -94h-72q-158 0 -269.5 -114t-111.5 -273v-285q0 -266 -190.5 -453.5t-458.5 -187.5h-471q0 135 95 230.5t231 95.5h73q160 0 270.5 113.5t110.5 273.5v284z" />
<glyph unicode="t" horiz-adv-x="1361" d="M713 1331h401q0 -135 -96 -230t-232 -95h-73q-68 0 -116 47t-48 114q0 68 48 116t116 48zM0 817q0 -340 243.5 -578.5t583.5 -238.5h486q0 135 -96.5 230.5t-231.5 95.5h-158q-203 0 -343 144t-140 347v885q0 141 -101.5 242.5t-242.5 101.5v-1229z" />
<glyph unicode="u" d="M1313 821q0 -201 -141.5 -348t-342.5 -147q-203 0 -344 146t-141 349v473q0 141 -101.5 242.5t-242.5 101.5v-817q0 -340 243.5 -580.5t585.5 -240.5q340 0 584 240.5t244 580.5v817q-141 0 -242.5 -101t-101.5 -243v-473z" />
<glyph unicode="v" d="M0 0h827q342 0 586 238.5t244 578.5v821q-141 0 -242.5 -101t-101.5 -243v-477q0 -203 -141.5 -347t-344.5 -144h-483v968q0 141 -101.5 242.5t-242.5 101.5v-1638z" />
<glyph unicode="w" horiz-adv-x="3129" d="M1313 817v821q141 0 242.5 -101t101.5 -243v-477q0 -203 141 -347t344 -144t343.5 144t140.5 347v477q0 141 101 242.5t243 101.5v-821q0 -340 -243 -578.5t-585 -238.5q-193 0 -364.5 85t-290.5 237q-121 -152 -295 -237t-365 -85q-340 0 -583.5 238.5t-243.5 578.5v821 q141 0 242.5 -101t101.5 -243v-477q0 -201 141.5 -346t341.5 -145q203 0 344.5 144t141.5 347z" />
<glyph unicode="x" horiz-adv-x="1818" d="M1657 0h-344v184q0 201 -141.5 348.5t-342.5 147.5q-203 0 -344 -146.5t-141 -349.5v-184h-344v184q0 197 89 370t249 290q-160 117 -249 289t-89 368v113h344v-113q0 -203 141.5 -349t343.5 -146q201 0 342.5 147t141.5 348v113h344v-113q0 -197 -89 -368.5t-247 -288.5 q158 -117 247 -291t89 -369v-184z" />
<glyph unicode="y" horiz-adv-x="1822" d="M1659 -410q-143 0 -244.5 101.5t-101.5 242.5v66h-484q-342 0 -585.5 238.5t-243.5 578.5v821q141 0 242.5 -101t101.5 -243v-477q0 -203 141.5 -347t343.5 -144h484v968q0 141 101.5 242.5t242.5 101.5z" />
<glyph unicode="z" horiz-adv-x="1775" d="M1120 997q0 266 -190.5 453.5t-458.5 187.5h-471q0 -137 95 -231t233 -94h71q160 0 270.5 -114t110.5 -273v-285q0 -266 191.5 -453.5t460.5 -187.5h471q0 135 -95.5 230.5t-230.5 95.5h-76q-158 0 -269.5 113.5t-111.5 273.5v284z" />
<glyph unicode="&#xaa;" horiz-adv-x="1820" d="M1661 817v-817h-832q-340 0 -584.5 238.5t-244.5 578.5t244.5 580.5t584.5 240.5t586 -240.5t246 -580.5zM1313 326v491q0 203 -140.5 349.5t-343.5 146.5t-343 -146.5t-140 -349.5t140.5 -347t342.5 -144h484z" />
<glyph unicode="&#xad;" horiz-adv-x="1466" d="M1313 657q0 135 -96.5 229.5t-231.5 94.5h-985q0 -135 96.5 -229.5t231.5 -94.5h985z" />
<glyph unicode="&#xb2;" horiz-adv-x="1935" d="M1120 997q0 266 -190.5 453.5t-458.5 187.5h-471q0 -137 95 -231t233 -94h71q160 0 270.5 -114t110.5 -273v-926h1123q0 135 -95.5 230.5t-230.5 95.5h-455z" />
<glyph unicode="&#xb3;" horiz-adv-x="1445" d="M942 657h-614q-135 0 -231.5 94.5t-96.5 229.5h942q-51 147 -176 239.5t-281 92.5h-157q-135 0 -231.5 95t-96.5 230h485q340 0 584 -240.5t244 -580.5t-243 -578.5t-585 -238.5h-485q0 135 96.5 230.5t231.5 95.5h157q156 0 281 92t176 239z" />
<glyph unicode="&#xb9;" horiz-adv-x="514" d="M344 1294q0 141 -101.5 242.5t-242.5 101.5v-1638h344v1294z" />
<glyph unicode="&#xba;" horiz-adv-x="1789" d="M827 1638q340 0 585 -240.5t245 -580.5t-245 -578.5t-585 -238.5t-583.5 238.5t-243.5 578.5t243.5 580.5t583.5 240.5zM827 1313q-203 0 -343 -146.5t-140 -349.5t140.5 -347t342.5 -144q203 0 344.5 144t141.5 347t-141.5 349.5t-344.5 146.5z" />
<glyph unicode="&#x152;" horiz-adv-x="3209" d="M2617 0q-340 0 -583.5 238.5t-243.5 578.5t243.5 580.5t583.5 240.5h486q0 -135 -96.5 -230t-231.5 -95h-158q-201 0 -342 -147.5t-141 -348.5t141.5 -346t341.5 -145h158q135 0 231.5 -95.5t96.5 -230.5h-486zM2503 981h600q0 -135 -96.5 -229.5t-231.5 -94.5h-272 q-68 0 -115 46.5t-47 113.5q0 70 46 117t116 47zM827 1638q340 0 585 -240.5t245 -580.5t-245 -578.5t-585 -238.5t-583.5 238.5t-243.5 578.5t243.5 580.5t583.5 240.5zM827 1313q-203 0 -343 -146.5t-140 -349.5t140.5 -347t342.5 -144q203 0 344.5 144t141.5 347 t-141.5 349.5t-344.5 146.5z" />
<glyph unicode="&#x153;" horiz-adv-x="3209" d="M2617 0q-340 0 -583.5 238.5t-243.5 578.5t243.5 580.5t583.5 240.5h486q0 -135 -96.5 -230t-231.5 -95h-158q-201 0 -342 -147.5t-141 -348.5t141.5 -346t341.5 -145h158q135 0 231.5 -95.5t96.5 -230.5h-486zM2503 981h600q0 -135 -96.5 -229.5t-231.5 -94.5h-272 q-68 0 -115 46.5t-47 113.5q0 70 46 117t116 47zM827 1638q340 0 585 -240.5t245 -580.5t-245 -578.5t-585 -238.5t-583.5 238.5t-243.5 578.5t243.5 580.5t583.5 240.5zM827 1313q-203 0 -343 -146.5t-140 -349.5t140.5 -347t342.5 -144q203 0 344.5 144t141.5 347 t-141.5 349.5t-344.5 146.5z" />
<glyph unicode="&#x2000;" horiz-adv-x="1245" />
<glyph unicode="&#x2001;" horiz-adv-x="2490" />
<glyph unicode="&#x2002;" horiz-adv-x="1245" />
<glyph unicode="&#x2003;" horiz-adv-x="2490" />
<glyph unicode="&#x2004;" horiz-adv-x="829" />
<glyph unicode="&#x2005;" horiz-adv-x="622" />
<glyph unicode="&#x2006;" horiz-adv-x="413" />
<glyph unicode="&#x2007;" horiz-adv-x="413" />
<glyph unicode="&#x2008;" horiz-adv-x="311" />
<glyph unicode="&#x2009;" horiz-adv-x="497" />
<glyph unicode="&#x200a;" horiz-adv-x="137" />
<glyph unicode="&#x2010;" horiz-adv-x="1466" d="M1313 657q0 135 -96.5 229.5t-231.5 94.5h-985q0 -135 96.5 -229.5t231.5 -94.5h985z" />
<glyph unicode="&#x2011;" horiz-adv-x="1466" d="M1313 657q0 135 -96.5 229.5t-231.5 94.5h-985q0 -135 96.5 -229.5t231.5 -94.5h985z" />
<glyph unicode="&#x2012;" horiz-adv-x="1466" d="M1313 657q0 135 -96.5 229.5t-231.5 94.5h-985q0 -135 96.5 -229.5t231.5 -94.5h985z" />
<glyph unicode="&#x2013;" horiz-adv-x="1024" d="M205 512v205h614v-205h-614z" />
<glyph unicode="&#x2014;" horiz-adv-x="2048" d="M205 512v205h1638v-205h-1638z" />
<glyph unicode="&#x2019;" horiz-adv-x="509" d="M344 1294q0 141 -101.5 242.5t-242.5 101.5v-399q0 -143 100.5 -243.5t243.5 -100.5v399z" />
<glyph unicode="&#x201c;" horiz-adv-x="956" d="M344 1294q0 141 -101.5 242.5t-242.5 101.5v-399q0 -143 100.5 -243.5t243.5 -100.5v399zM791 1294q0 141 -101.5 242.5t-243.5 101.5v-399q0 -143 100.5 -243.5t244.5 -100.5v399z" />
<glyph unicode="&#x201d;" horiz-adv-x="956" d="M344 1294q0 141 -101.5 242.5t-242.5 101.5v-399q0 -143 100.5 -243.5t243.5 -100.5v399zM791 1294q0 141 -101.5 242.5t-243.5 101.5v-399q0 -143 100.5 -243.5t244.5 -100.5v399z" />
<glyph unicode="&#x2026;" horiz-adv-x="1536" d="M1368 119q0 141 -101.5 242.5t-242.5 101.5v-119q0 -141 101.5 -242.5t242.5 -101.5v119zM856 119q0 141 -101.5 242.5t-242.5 101.5v-119q0 -141 101.5 -242.5t242.5 -101.5v119zM344 119q0 141 -101.5 242.5t-242.5 101.5v-119q0 -141 101.5 -242.5t242.5 -101.5v119z " />
<glyph unicode="&#x202f;" horiz-adv-x="497" />
<glyph unicode="&#x205f;" horiz-adv-x="622" />
<glyph unicode="&#x2122;" horiz-adv-x="4866" d="M3394 817v-817q-141 0 -242.5 101.5t-101.5 242.5v473q0 203 -140.5 349.5t-343.5 146.5t-344 -146.5t-141 -349.5v-473q0 -143 -100.5 -243.5t-243.5 -100.5v817q0 340 244.5 580.5t584.5 240.5q193 0 365 -85t293 -236q117 150 291 235.5t364 85.5q342 0 585 -239.5 t243 -581.5v-817q-141 0 -242.5 101.5t-101.5 242.5v473q0 203 -140.5 349.5t-343.5 146.5t-344 -146.5t-141 -349.5zM1651 1614q0 -135 -95.5 -230.5t-230.5 -95.5h-328v-1288q-141 0 -242.5 101.5t-101.5 242.5v944h-327q-135 0 -230.5 95.5t-95.5 230.5h1651z" />
<glyph unicode="&#xe000;" horiz-adv-x="1615" d="M0 1615h1615v-1615h-1615v1615z" />
<glyph unicode="&#xfb01;" horiz-adv-x="1886" d="M1716 1294q0 141 -101.5 242.5t-242.5 101.5v-1294q0 -141 101.5 -242.5t242.5 -101.5v1294zM713 981h600q0 -135 -96.5 -229.5t-231.5 -94.5h-272q-68 0 -115 46.5t-47 113.5q0 70 46 117t116 47zM344 821q0 203 141.5 347.5t343.5 144.5h158q135 0 230.5 95t95.5 230 h-484q-340 0 -584.5 -238.5t-244.5 -578.5v-821q141 0 242.5 101.5t101.5 242.5v477z" />
<glyph unicode="&#xfb02;" horiz-adv-x="2596" d="M1716 817q0 -203 141.5 -347t343.5 -144h158q135 0 230.5 -95.5t95.5 -230.5h-484q-340 0 -584.5 238.5t-244.5 578.5v1229q141 0 242.5 -101.5t101.5 -242.5v-885zM713 981h600q0 -135 -96.5 -229.5t-231.5 -94.5h-272q-68 0 -115 46.5t-47 113.5q0 70 46 117t116 47z M344 821q0 203 141.5 347.5t343.5 144.5h158q135 0 230.5 95t95.5 230h-484q-340 0 -584.5 -238.5t-244.5 -578.5v-821q141 0 242.5 101.5t101.5 242.5v477z" />
<glyph unicode="&#xfb03;" horiz-adv-x="3258" d="M3088 1294q0 141 -101.5 242.5t-242.5 101.5v-1294q0 -141 101.5 -242.5t242.5 -101.5v1294zM2085 981h600q0 -135 -96.5 -229.5t-231.5 -94.5h-272q-68 0 -115 46.5t-47 113.5q0 70 46 117t116 47zM1716 821q0 203 141.5 347.5t343.5 144.5h158q135 0 230.5 95t95.5 230 h-484q-340 0 -584.5 -238.5t-244.5 -578.5v-821q141 0 242.5 101.5t101.5 242.5v477zM713 981h600q0 -135 -96.5 -229.5t-231.5 -94.5h-272q-68 0 -115 46.5t-47 113.5q0 70 46 117t116 47zM344 821q0 203 141.5 347.5t343.5 144.5h158q135 0 230.5 95t95.5 230h-484 q-340 0 -584.5 -238.5t-244.5 -578.5v-821q141 0 242.5 101.5t101.5 242.5v477z" />
<glyph unicode="&#xfb04;" horiz-adv-x="3969" d="M3088 817q0 -203 141.5 -347t343.5 -144h158q135 0 230.5 -95.5t95.5 -230.5h-484q-340 0 -584.5 238.5t-244.5 578.5v1229q141 0 242.5 -101.5t101.5 -242.5v-885zM2085 981h600q0 -135 -96.5 -229.5t-231.5 -94.5h-272q-68 0 -115 46.5t-47 113.5q0 70 46 117t116 47z M1716 821q0 203 141.5 347.5t343.5 144.5h158q135 0 230.5 95t95.5 230h-484q-340 0 -584.5 -238.5t-244.5 -578.5v-821q141 0 242.5 101.5t101.5 242.5v477zM713 981h600q0 -135 -96.5 -229.5t-231.5 -94.5h-272q-68 0 -115 46.5t-47 113.5q0 70 46 117t116 47zM344 821 q0 203 141.5 347.5t343.5 144.5h158q135 0 230.5 95t95.5 230h-484q-340 0 -584.5 -238.5t-244.5 -578.5v-821q141 0 242.5 101.5t101.5 242.5v477z" />
</font>
</defs>
</svg>
